<svg width="30" height="30" viewBox="0 0 30 30" fill="none" xmlns="http://www.w3.org/2000/svg">
<path d="M15 10.9375C13.9226 10.9375 12.8892 11.3655 12.1274 12.1274C11.3655 12.8892 10.9375 13.9226 10.9375 15C10.9375 16.0774 11.3655 17.1108 12.1274 17.8726C12.8892 18.6345 13.9226 19.0625 15 19.0625C16.0774 19.0625 17.1108 18.6345 17.8726 17.8726C18.6345 17.1108 19.0625 16.0774 19.0625 15C19.0625 13.9226 18.6345 12.8892 17.8726 12.1274C17.1108 11.3655 16.0774 10.9375 15 10.9375Z" fill="black"/>
<path fill-rule="evenodd" clip-rule="evenodd" d="M8.4625 3.85246C12.8075 3.37112 17.1925 3.37112 21.5375 3.85246C23.9112 4.11746 25.825 5.98621 26.1037 8.36871C26.6187 12.7745 26.6187 17.2254 26.1037 21.6312C25.825 24.0137 23.9113 25.8825 21.5387 26.1487C17.1933 26.6301 12.808 26.6301 8.4625 26.1487C6.08875 25.8825 4.175 24.0137 3.89625 21.6325C3.38123 17.2262 3.38123 12.775 3.89625 8.36871C4.175 5.98621 6.08875 4.11746 8.4625 3.85246ZM21.25 7.49996C20.9185 7.49996 20.6005 7.63166 20.3661 7.86608C20.1317 8.1005 20 8.41844 20 8.74996C20 9.08148 20.1317 9.39942 20.3661 9.63384C20.6005 9.86826 20.9185 9.99996 21.25 9.99996C21.5815 9.99996 21.8995 9.86826 22.1339 9.63384C22.3683 9.39942 22.5 9.08148 22.5 8.74996C22.5 8.41844 22.3683 8.1005 22.1339 7.86608C21.8995 7.63166 21.5815 7.49996 21.25 7.49996ZM9.0625 15C9.0625 13.4252 9.68806 11.915 10.8016 10.8015C11.9151 9.68801 13.4253 9.06246 15 9.06246C16.5747 9.06246 18.0849 9.68801 19.1984 10.8015C20.3119 11.915 20.9375 13.4252 20.9375 15C20.9375 16.5747 20.3119 18.0849 19.1984 19.1984C18.0849 20.3119 16.5747 20.9375 15 20.9375C13.4253 20.9375 11.9151 20.3119 10.8016 19.1984C9.68806 18.0849 9.0625 16.5747 9.0625 15Z" fill="black"/>
</svg>
