<svg width="13" height="13" viewBox="0 0 13 13" fill="none" xmlns="http://www.w3.org/2000/svg">
<path d="M9.07292 7.31248C8.47708 6.49998 7.66458 5.95831 6.5 5.95831C5.33542 5.95831 4.52292 6.49998 3.92708 7.31248H9.07292Z" fill="#2196F3"/>
<path d="M9.23542 11.6459H3.76458C3.46667 11.6459 3.25 11.4292 3.22292 11.1313L3.00625 7.61044C3.00625 7.31252 3.25 7.04169 3.54792 7.04169H9.45208C9.77708 7.04169 10.0208 7.31252 9.99375 7.61044L9.77708 11.1313C9.75 11.4292 9.53333 11.6459 9.23542 11.6459Z" fill="#546E7A"/>
<path d="M9.20833 8.12498C9.35791 8.12498 9.47917 8.00372 9.47917 7.85415C9.47917 7.70457 9.35791 7.58331 9.20833 7.58331C9.05876 7.58331 8.9375 7.70457 8.9375 7.85415C8.9375 8.00372 9.05876 8.12498 9.20833 8.12498Z" fill="#B0BEC5"/>
<path d="M6.5 5.41665C7.69662 5.41665 8.66667 4.4466 8.66667 3.24998C8.66667 2.05336 7.69662 1.08331 6.5 1.08331C5.30338 1.08331 4.33333 2.05336 4.33333 3.24998C4.33333 4.4466 5.30338 5.41665 6.5 5.41665Z" fill="#C4A77D"/>
<path d="M4.36042 11.4833L4.0625 11.7812C3.9 11.9437 3.62917 11.9437 3.46667 11.7812L2.57292 10.8875C2.41042 10.725 2.41042 10.4542 2.57292 10.2917L2.87083 9.99374C3.22292 9.64165 3.71042 9.64165 4.0625 9.99374L4.36042 10.2917C4.68542 10.6437 4.68542 11.1583 4.36042 11.4833ZM8.63958 10.2917L8.9375 9.99374C9.28958 9.64165 9.77708 9.64165 10.1292 9.99374L10.4271 10.2917C10.5896 10.4542 10.5896 10.725 10.4271 10.8875L9.53333 11.7812C9.37083 11.9437 9.1 11.9437 8.9375 11.7812L8.63958 11.4833C8.31458 11.1583 8.31458 10.6437 8.63958 10.2917Z" fill="#C4A77D"/>
</svg>
