<svg width="30" height="30" viewBox="0 0 30 30" fill="none" xmlns="http://www.w3.org/2000/svg">
<path d="M16.715 2.6175C13.7252 2.20781 10.688 2.89326 8.16395 4.54738C5.63988 6.2015 3.7992 8.71266 2.98152 11.6176C2.16384 14.5225 2.42434 17.6251 3.71495 20.353C5.00557 23.0808 7.2392 25.2499 10.0038 26.46C9.92945 25.5002 9.99769 24.5348 10.2063 23.595C10.4375 22.5462 11.8263 16.7662 11.8263 16.7662C11.5482 16.1469 11.4099 15.4738 11.4213 14.795C11.4213 12.9387 12.4925 11.5537 13.825 11.5537C14.0644 11.5503 14.3017 11.5984 14.5208 11.6948C14.74 11.7912 14.9358 11.9337 15.0949 12.1125C15.2541 12.2914 15.3729 12.5024 15.4432 12.7312C15.5135 12.9601 15.5338 13.2014 15.5025 13.4387C15.5025 14.5637 14.78 16.2662 14.4025 17.8637C14.3279 18.1567 14.3232 18.4631 14.3887 18.7583C14.4542 19.0534 14.5881 19.329 14.7797 19.5629C14.9713 19.7968 15.2151 19.9824 15.4915 20.1048C15.768 20.2272 16.0693 20.2829 16.3713 20.2675C18.7425 20.2675 20.3338 17.2287 20.3338 13.6412C20.3338 10.89 18.5125 8.8325 15.155 8.8325C14.3518 8.80129 13.5507 8.93362 12.8002 9.22146C12.0497 9.50929 11.3656 9.94663 10.7893 10.5069C10.213 11.0672 9.75652 11.7388 9.44766 12.4809C9.13879 13.2229 8.98394 14.02 8.9925 14.8237C8.95672 15.7154 9.24438 16.5899 9.8025 17.2862C9.9068 17.3641 9.98295 17.4737 10.0195 17.5987C10.056 17.7236 10.0509 17.857 10.005 17.9787C9.9475 18.2087 9.8025 18.7575 9.745 18.96C9.73288 19.0281 9.70494 19.0925 9.66343 19.1479C9.62192 19.2032 9.568 19.2481 9.506 19.2789C9.444 19.3096 9.37565 19.3254 9.30644 19.325C9.23723 19.3245 9.16909 19.3078 9.1075 19.2762C7.3775 18.5837 6.5625 16.68 6.5625 14.5062C6.5625 10.9475 9.54251 6.6875 15.505 6.6875C20.25 6.6875 23.4038 10.1587 23.4038 13.8712C23.4038 18.7575 20.6838 22.4312 16.6625 22.4312C16.0615 22.4506 15.4653 22.318 14.9291 22.0457C14.3929 21.7735 13.9341 21.3704 13.595 20.8737C13.595 20.8737 12.8713 23.7687 12.73 24.3162C12.4396 25.2623 12.0103 26.16 11.4563 26.98C12.61 27.33 13.8088 27.505 15.0138 27.5C16.6555 27.501 18.2814 27.1782 19.7983 26.5502C21.3152 25.9221 22.6933 25.0011 23.8539 23.8398C25.0145 22.6786 25.9347 21.2999 26.5618 19.7826C27.1889 18.2653 27.5107 16.6393 27.5088 14.9975C27.508 11.9784 26.4146 9.06155 24.4306 6.7859C22.4465 4.51026 19.7059 3.0296 16.715 2.6175Z" fill="black"/>
</svg>
