<svg width="24" height="24" viewBox="0 0 24 24" fill="none" xmlns="http://www.w3.org/2000/svg">
<path d="M16.375 6.5C17.4027 6.5 18.3885 6.90806 19.1152 7.63477C19.8419 8.36147 20.25 9.34729 20.25 10.375C20.25 11.438 20.1044 12.9386 18.6465 14.3965C17.8855 15.1575 16.1711 16.4456 14.6113 17.5654C13.839 18.1199 13.1162 18.6255 12.5859 18.9922C12.3546 19.1522 12.1594 19.2851 12.0137 19.3848L5.33203 14.373C3.89507 12.9222 3.75 11.4325 3.75 10.375C3.75 9.34729 4.15806 8.36147 4.88477 7.63477C5.61147 6.90806 6.59729 6.5 7.625 6.5C8.65271 6.5 9.63853 6.90806 10.3652 7.63477C11.0919 8.36147 11.5 9.34729 11.5 10.375H12.5C12.5 9.34729 12.9081 8.36147 13.6348 7.63477C14.3615 6.90806 15.3473 6.5 16.375 6.5Z" stroke="black"/>
</svg>
