<svg width="29" height="29" viewBox="0 0 29 29" fill="none" xmlns="http://www.w3.org/2000/svg">
<path d="M10.3125 0.5C15.7227 0.5 20.125 4.90229 20.125 10.3125V10.3135C20.1272 12.3255 19.5069 14.2888 18.3496 15.9346L17.9902 16.4463L18.5674 16.6846L22.1299 18.1562L26.8105 22.8369C27.0688 23.0952 27.2733 23.4019 27.4131 23.7393C27.5528 24.0767 27.625 24.4385 27.625 24.8037C27.625 25.1689 27.5529 25.5308 27.4131 25.8682C27.2733 26.2055 27.0688 26.5123 26.8105 26.7705C26.5523 27.0287 26.2456 27.2333 25.9082 27.373C25.5708 27.5128 25.209 27.585 24.8438 27.585C24.4785 27.5849 24.1167 27.5128 23.7793 27.373C23.4419 27.2333 23.1352 27.0287 22.877 26.7705L18.1953 22.0879L16.7285 18.5371L16.4893 17.9561L15.9766 18.3203C14.3224 19.4962 12.343 20.1272 10.3135 20.125H10.3125C4.90229 20.125 0.5 15.7227 0.5 10.3125C0.5 4.90229 4.90229 0.5 10.3125 0.5ZM17.501 18.1133L18.9004 21.502L18.9385 21.5947L19.0088 21.665L23.4961 26.1514V26.1523C23.8538 26.5091 24.3386 26.709 24.8438 26.709C25.3489 26.709 25.8337 26.5091 26.1914 26.1523L26.1924 26.1514C26.5492 25.7937 26.749 25.3089 26.749 24.8037C26.7491 24.2985 26.5491 23.8138 26.1924 23.4561H26.1914L21.7051 18.9688L21.6348 18.8984L21.542 18.8604L18.1533 17.46L17.041 17.001L17.501 18.1133ZM10.3125 1.375C5.38401 1.375 1.375 5.38401 1.375 10.3125C1.375 15.241 5.38401 19.25 10.3125 19.25C15.241 19.25 19.25 15.241 19.25 10.3125C19.25 5.38401 15.241 1.375 10.3125 1.375Z" fill="#ADADAD" stroke="#7A7A7A"/>
</svg>
